name rise44.8762peak52.3436fall86.788.mot
datacolumns 19
datarows 33
range 9.27496400000000 9.32829400000000
endheader
time	ground_force1_vx	ground_force1_vy	ground_force1_vz	ground_force1_px	ground_force1_py	ground_force1_pz	ground_force2_vx	ground_force2_vy	ground_force2_vz	ground_force2_px	ground_force2_py	ground_force2_pz	ground_torque1_x	ground_torque1_y	ground_torque1_z	ground_torque2_x	ground_torque2_y	ground_torque2_z	
9.27496400000000	5.52875000000000	709.23068100000000	51.70479000000000	0.17496300000000	0.00000000000000	0.11332300000000	0.00000000000000	0.00000000000000	0.00000000000000	0.00000000000000	0.00000000000000	0.00000000000000	0.00000000000000	16.67722800000000	0.00000000000000	0.00000000000000	0.00000000000000	0.00000000000000	
9.27662800000000	5.21357000000000	710.10857099999998	51.79029800000000	0.17412600000000	0.00000000000000	0.11324500000000	0.00000000000000	0.00000000000000	0.00000000000000	0.00000000000000	0.00000000000000	0.00000000000000	0.00000000000000	16.73207200000000	0.00000000000000	0.00000000000000	0.00000000000000	0.00000000000000	
9.27829400000000	4.89202700000000	711.02102200000002	51.87644000000000	0.17327800000000	0.00000000000000	0.11316600000000	0.00000000000000	0.00000000000000	0.00000000000000	0.00000000000000	0.00000000000000	0.00000000000000	0.00000000000000	16.78909700000000	0.00000000000000	0.00000000000000	0.00000000000000	0.00000000000000	
9.27996600000000	4.56402100000000	711.96597099999997	51.96284700000000	0.17242000000000	0.00000000000000	0.11308700000000	0.00000000000000	0.00000000000000	0.00000000000000	0.00000000000000	0.00000000000000	0.00000000000000	0.00000000000000	16.84820800000000	0.00000000000000	0.00000000000000	0.00000000000000	0.00000000000000	
9.28162900000000	4.22947000000000	712.94139700000005	52.04916700000000	0.17155300000000	0.00000000000000	0.11300800000000	0.00000000000000	0.00000000000000	0.00000000000000	0.00000000000000	0.00000000000000	0.00000000000000	0.00000000000000	16.90931800000000	0.00000000000000	0.00000000000000	0.00000000000000	0.00000000000000	
9.28329200000000	3.88831600000000	713.94532200000003	52.13506800000000	0.17067700000000	0.00000000000000	0.11292800000000	0.00000000000000	0.00000000000000	0.00000000000000	0.00000000000000	0.00000000000000	0.00000000000000	0.00000000000000	16.97234400000000	0.00000000000000	0.00000000000000	0.00000000000000	0.00000000000000	
9.28496700000000	3.54051700000000	714.97581900000000	52.22023700000000	0.16979300000000	0.00000000000000	0.11284800000000	0.00000000000000	0.00000000000000	0.00000000000000	0.00000000000000	0.00000000000000	0.00000000000000	0.00000000000000	17.03721100000000	0.00000000000000	0.00000000000000	0.00000000000000	0.00000000000000	
9.28663300000000	3.18605300000000	716.03101800000002	52.30438400000000	0.16890300000000	0.00000000000000	0.11276800000000	0.00000000000000	0.00000000000000	0.00000000000000	0.00000000000000	0.00000000000000	0.00000000000000	0.00000000000000	17.10384600000000	0.00000000000000	0.00000000000000	0.00000000000000	0.00000000000000	
9.28829400000000	2.82491900000000	717.10910699999999	52.38723900000000	0.16800700000000	0.00000000000000	0.11268700000000	0.00000000000000	0.00000000000000	0.00000000000000	0.00000000000000	0.00000000000000	0.00000000000000	0.00000000000000	17.17218400000000	0.00000000000000	0.00000000000000	0.00000000000000	0.00000000000000	
9.28996200000000	2.45712900000000	718.20833700000003	52.46855400000000	0.16710500000000	0.00000000000000	0.11260700000000	0.00000000000000	0.00000000000000	0.00000000000000	0.00000000000000	0.00000000000000	0.00000000000000	0.00000000000000	17.24216300000000	0.00000000000000	0.00000000000000	0.00000000000000	0.00000000000000	
9.29162900000000	2.08271700000000	719.32702800000004	52.54810400000000	0.16619900000000	0.00000000000000	0.11252500000000	0.00000000000000	0.00000000000000	0.00000000000000	0.00000000000000	0.00000000000000	0.00000000000000	0.00000000000000	17.31372500000000	0.00000000000000	0.00000000000000	0.00000000000000	0.00000000000000	
9.29330100000000	1.70172700000000	720.46356900000001	52.62568700000000	0.16529000000000	0.00000000000000	0.11244400000000	0.00000000000000	0.00000000000000	0.00000000000000	0.00000000000000	0.00000000000000	0.00000000000000	0.00000000000000	17.38681900000000	0.00000000000000	0.00000000000000	0.00000000000000	0.00000000000000	
9.29496100000000	1.31422500000000	721.61642099999995	52.70112100000000	0.16437900000000	0.00000000000000	0.11236200000000	0.00000000000000	0.00000000000000	0.00000000000000	0.00000000000000	0.00000000000000	0.00000000000000	0.00000000000000	17.46139400000000	0.00000000000000	0.00000000000000	0.00000000000000	0.00000000000000	
9.29663300000000	0.92028500000000	722.78411900000003	52.77425000000000	0.16346600000000	0.00000000000000	0.11228000000000	0.00000000000000	0.00000000000000	0.00000000000000	0.00000000000000	0.00000000000000	0.00000000000000	0.00000000000000	17.53740300000000	0.00000000000000	0.00000000000000	0.00000000000000	0.00000000000000	
9.29829600000000	0.52000000000000	723.96527300000002	52.84494000000000	0.16255200000000	0.00000000000000	0.11219800000000	0.00000000000000	0.00000000000000	0.00000000000000	0.00000000000000	0.00000000000000	0.00000000000000	0.00000000000000	17.61480300000000	0.00000000000000	0.00000000000000	0.00000000000000	0.00000000000000	
9.29996600000000	0.11347400000000	725.15857200000005	52.91307800000000	0.16163900000000	0.00000000000000	0.11211600000000	0.00000000000000	0.00000000000000	0.00000000000000	0.00000000000000	0.00000000000000	0.00000000000000	0.00000000000000	17.69355300000000	0.00000000000000	0.00000000000000	0.00000000000000	0.00000000000000	
9.30163300000000	-0.29917800000000	726.36277700000005	52.97857700000000	0.16072700000000	0.00000000000000	0.11203300000000	0.00000000000000	0.00000000000000	0.00000000000000	0.00000000000000	0.00000000000000	0.00000000000000	0.00000000000000	17.77361200000000	0.00000000000000	0.00000000000000	0.00000000000000	0.00000000000000	
9.30329800000000	-0.71782800000000	727.57673000000000	53.04136900000000	0.15981700000000	0.00000000000000	0.11195000000000	0.00000000000000	0.00000000000000	0.00000000000000	0.00000000000000	0.00000000000000	0.00000000000000	0.00000000000000	17.85494000000000	0.00000000000000	0.00000000000000	0.00000000000000	0.00000000000000	
9.30496500000000	-1.14233800000000	728.79934600000001	53.10141000000000	0.15891000000000	0.00000000000000	0.11186700000000	0.00000000000000	0.00000000000000	0.00000000000000	0.00000000000000	0.00000000000000	0.00000000000000	0.00000000000000	17.93749900000000	0.00000000000000	0.00000000000000	0.00000000000000	0.00000000000000	
9.30663300000000	-1.57256000000000	730.02961600000003	53.15867800000000	0.15800600000000	0.00000000000000	0.11178400000000	0.00000000000000	0.00000000000000	0.00000000000000	0.00000000000000	0.00000000000000	0.00000000000000	0.00000000000000	18.02125100000000	0.00000000000000	0.00000000000000	0.00000000000000	0.00000000000000	
9.30829600000000	-2.00833700000000	731.26660300000003	53.21316900000000	0.15710700000000	0.00000000000000	0.11170000000000	0.00000000000000	0.00000000000000	0.00000000000000	0.00000000000000	0.00000000000000	0.00000000000000	0.00000000000000	18.10615600000000	0.00000000000000	0.00000000000000	0.00000000000000	0.00000000000000	
9.30995900000000	-2.44950500000000	732.50944200000004	53.26490400000000	0.15621200000000	0.00000000000000	0.11161700000000	0.00000000000000	0.00000000000000	0.00000000000000	0.00000000000000	0.00000000000000	0.00000000000000	0.00000000000000	18.19217400000000	0.00000000000000	0.00000000000000	0.00000000000000	0.00000000000000	
9.31162900000000	-2.89588800000000	733.75733500000001	53.31392100000000	0.15532300000000	0.00000000000000	0.11153300000000	0.00000000000000	0.00000000000000	0.00000000000000	0.00000000000000	0.00000000000000	0.00000000000000	0.00000000000000	18.27926200000000	0.00000000000000	0.00000000000000	0.00000000000000	0.00000000000000	
9.31329600000000	-3.34730700000000	735.00955199999999	53.36027900000000	0.15444000000000	0.00000000000000	0.11145000000000	0.00000000000000	0.00000000000000	0.00000000000000	0.00000000000000	0.00000000000000	0.00000000000000	0.00000000000000	18.36737700000000	0.00000000000000	0.00000000000000	0.00000000000000	0.00000000000000	
9.31495900000000	-3.80357300000000	736.26542099999995	53.40405400000000	0.15356300000000	0.00000000000000	0.11136600000000	0.00000000000000	0.00000000000000	0.00000000000000	0.00000000000000	0.00000000000000	0.00000000000000	0.00000000000000	18.45647200000000	0.00000000000000	0.00000000000000	0.00000000000000	0.00000000000000	
9.31663300000000	-4.26449400000000	737.52433399999995	53.44534300000000	0.15269300000000	0.00000000000000	0.11128200000000	0.00000000000000	0.00000000000000	0.00000000000000	0.00000000000000	0.00000000000000	0.00000000000000	0.00000000000000	18.54649800000000	0.00000000000000	0.00000000000000	0.00000000000000	0.00000000000000	
9.31829400000000	-4.72986900000000	738.78573200000005	53.48425600000000	0.15183000000000	0.00000000000000	0.11119900000000	0.00000000000000	0.00000000000000	0.00000000000000	0.00000000000000	0.00000000000000	0.00000000000000	0.00000000000000	18.63740300000000	0.00000000000000	0.00000000000000	0.00000000000000	0.00000000000000	
9.31996300000000	-5.19949300000000	740.04910900000004	53.52092300000000	0.15097400000000	0.00000000000000	0.11111500000000	0.00000000000000	0.00000000000000	0.00000000000000	0.00000000000000	0.00000000000000	0.00000000000000	0.00000000000000	18.72912900000000	0.00000000000000	0.00000000000000	0.00000000000000	0.00000000000000	
9.32163400000000	-5.67315700000000	741.31400399999995	53.55548600000000	0.15012500000000	0.00000000000000	0.11103200000000	0.00000000000000	0.00000000000000	0.00000000000000	0.00000000000000	0.00000000000000	0.00000000000000	0.00000000000000	18.82161700000000	0.00000000000000	0.00000000000000	0.00000000000000	0.00000000000000	
9.32329800000000	-6.15064400000000	742.57999700000005	53.58810400000000	0.14928300000000	0.00000000000000	0.11094900000000	0.00000000000000	0.00000000000000	0.00000000000000	0.00000000000000	0.00000000000000	0.00000000000000	0.00000000000000	18.91480300000000	0.00000000000000	0.00000000000000	0.00000000000000	0.00000000000000	
9.32495900000000	-6.63173500000000	743.84670100000005	53.61894900000000	0.14844900000000	0.00000000000000	0.11086600000000	0.00000000000000	0.00000000000000	0.00000000000000	0.00000000000000	0.00000000000000	0.00000000000000	0.00000000000000	19.00861800000000	0.00000000000000	0.00000000000000	0.00000000000000	0.00000000000000	
9.32663300000000	-7.11620700000000	745.11375999999996	53.64820300000000	0.14762200000000	0.00000000000000	0.11078300000000	0.00000000000000	0.00000000000000	0.00000000000000	0.00000000000000	0.00000000000000	0.00000000000000	0.00000000000000	19.10298900000000	0.00000000000000	0.00000000000000	0.00000000000000	0.00000000000000	
9.32829400000000	-7.60383000000000	746.38084300000003	53.67606100000000	0.14680200000000	0.00000000000000	0.11070100000000	0.00000000000000	0.00000000000000	0.00000000000000	0.00000000000000	0.00000000000000	0.00000000000000	0.00000000000000	19.19783700000000	0.00000000000000	0.00000000000000	0.00000000000000	0.00000000000000	
